<svg width="227.000000" height="227.000000" viewBox="0 0 227 227" fill="none"
  xmlns="http://www.w3.org/2000/svg" xmlns:xlink="http://www.w3.org/1999/xlink">
  <g clip-path="url(#clip2_12908)">
    <path id="Vector" d="M0 173.61L227 173.61L227 173.72L0 173.72L0 173.61Z" fill="#EBEBEB"
      fill-opacity="1.000000" fill-rule="evenodd" />
    <path id="Vector" d="M162.98 177.93L204.25 177.93L204.25 178.04L162.98 178.04L162.98 177.93Z"
      fill="#EBEBEB" fill-opacity="1.000000" fill-rule="evenodd" />
    <path id="Vector" d="M139.07 176.7L150.37 176.7L150.37 176.81L139.07 176.81L139.07 176.7Z"
      fill="#EBEBEB" fill-opacity="1.000000" fill-rule="evenodd" />
    <path id="Vector" d="M158.68 182.14L176.2 182.14L176.2 182.26L158.68 182.26L158.68 182.14Z"
      fill="#EBEBEB" fill-opacity="1.000000" fill-rule="evenodd" />
    <path id="Vector" d="M23.81 181.38L34.09 181.38L34.09 181.5L23.81 181.5L23.81 181.38Z"
      fill="#EBEBEB" fill-opacity="1.000000" fill-rule="evenodd" />
    <path id="Vector" d="M38.13 181.38L50.34 181.38L50.34 181.5L38.13 181.5L38.13 181.38Z"
      fill="#EBEBEB" fill-opacity="1.000000" fill-rule="evenodd" />
    <path id="Vector" d="M80.95 179.47L102.21 179.47L102.21 179.58L80.95 179.58L80.95 179.47Z"
      fill="#EBEBEB" fill-opacity="1.000000" fill-rule="evenodd" />
    <path id="Vector"
      d="M107.59 153.36L19.93 153.36C19.24 153.36 18.59 153.08 18.1 152.6C17.61 152.11 17.34 151.45 17.34 150.76L17.34 27.53C17.35 26.85 17.62 26.2 18.11 25.72C18.59 25.24 19.25 24.97 19.93 24.97L107.59 24.97C108.28 24.97 108.94 25.24 109.43 25.72C109.91 26.21 110.19 26.87 110.19 27.56L110.19 150.76C110.19 151.45 109.91 152.11 109.43 152.6C108.94 153.08 108.28 153.36 107.59 153.36ZM19.93 25.06C19.27 25.06 18.64 25.32 18.18 25.78C17.72 26.25 17.46 26.88 17.46 27.53L17.46 150.76C17.46 151.42 17.72 152.05 18.18 152.52C18.64 152.98 19.27 153.24 19.93 153.24L107.59 153.24C108.25 153.24 108.88 152.98 109.35 152.52C109.81 152.05 110.07 151.42 110.07 150.76L110.07 27.53C110.07 26.88 109.81 26.25 109.35 25.78C108.88 25.32 108.25 25.06 107.59 25.06L19.93 25.06Z"
      fill="#EBEBEB" fill-opacity="1.000000" fill-rule="nonzero" />
    <path id="Vector"
      d="M205.8 153.36L118.13 153.36C117.44 153.36 116.79 153.08 116.3 152.6C115.81 152.11 115.54 151.45 115.54 150.76L115.54 27.53C115.55 26.85 115.82 26.2 116.31 25.72C116.79 25.24 117.45 24.97 118.13 24.97L205.8 24.97C206.48 24.97 207.13 25.24 207.62 25.72C208.1 26.2 208.38 26.85 208.38 27.53L208.38 150.76C208.38 151.45 208.11 152.11 207.63 152.59C207.14 153.08 206.48 153.35 205.8 153.36ZM118.13 25.06C117.47 25.06 116.84 25.32 116.38 25.78C115.91 26.25 115.65 26.88 115.65 27.53L115.65 150.76C115.65 151.42 115.91 152.05 116.38 152.52C116.84 152.98 117.47 153.24 118.13 153.24L205.8 153.24C206.46 153.24 207.09 152.98 207.55 152.52C208.01 152.05 208.28 151.42 208.28 150.76L208.28 27.53C208.28 26.88 208.01 26.25 207.55 25.78C207.09 25.32 206.46 25.06 205.8 25.06L118.13 25.06Z"
      fill="#EBEBEB" fill-opacity="1.000000" fill-rule="nonzero" />
    <path id="Vector" d="M78.09 173.6L23.81 173.6L23.81 53.56L78.09 53.56L78.09 173.6Z"
      fill="#F0F0F0" fill-opacity="1.000000" fill-rule="evenodd" />
    <path id="Vector" d="M75.52 173.6L23.81 173.6L23.81 53.56L75.52 53.56L75.52 173.6Z"
      fill="#F5F5F5" fill-opacity="1.000000" fill-rule="evenodd" />
    <path id="Vector" d="M72.79 56.29L72.79 170.88L26.54 170.88L26.54 56.29L72.79 56.29Z"
      fill="#F0F0F0" fill-opacity="1.000000" fill-rule="evenodd" />
    <path id="Vector"
      d="M41.48 110.32L32.05 110.32C31.73 110.32 31.42 110.19 31.2 109.96C30.97 109.73 30.84 109.43 30.84 109.11C30.84 108.78 30.97 108.48 31.2 108.25C31.42 108.02 31.73 107.89 32.05 107.89L41.48 107.89C41.8 107.89 42.11 108.02 42.34 108.25C42.56 108.48 42.69 108.78 42.69 109.11C42.69 109.43 42.56 109.73 42.34 109.96C42.11 110.19 41.8 110.32 41.48 110.32Z"
      fill="#FFFFFF" fill-opacity="1.000000" fill-rule="nonzero" />
    <path id="Vector" d="M27.24 56.29L27.24 170.88L26.54 170.88L26.54 56.29L27.24 56.29Z"
      fill="#F0F0F0" fill-opacity="1.000000" fill-rule="evenodd" />
    <path id="Vector" d="M111.6 171.33L103.52 171.33L103.52 136.28L111.6 136.28L111.6 171.33Z"
      fill="#F0F0F0" fill-opacity="1.000000" fill-rule="evenodd" />
    <path id="Vector" d="M110.05 173.55L70.2 173.55L70.2 171.33L110.05 171.33L110.05 173.55Z"
      fill="#F0F0F0" fill-opacity="1.000000" fill-rule="evenodd" />
    <path id="Vector" d="M68.64 136.28L103.52 136.28L103.52 171.33L68.64 171.33L68.64 136.28Z"
      fill="#F5F5F5" fill-opacity="1.000000" fill-rule="evenodd" />
    <path id="Vector" d="M71.82 140.59L100.34 140.59L100.34 152.09L71.82 152.09L71.82 140.59Z"
      fill="#F0F0F0" fill-opacity="1.000000" fill-rule="evenodd" />
    <path id="Vector" d="M71.82 155.52L100.34 155.52L100.34 167.01L71.82 167.01L71.82 155.52Z"
      fill="#F0F0F0" fill-opacity="1.000000" fill-rule="evenodd" />
    <path id="Vector"
      d="M82.88 141.56L89.28 141.56C89.49 141.56 89.69 141.48 89.84 141.33C89.98 141.18 90.07 140.98 90.07 140.78C90.07 140.57 89.99 140.37 89.84 140.22C89.69 140.07 89.49 139.99 89.28 139.99L82.88 139.99C82.67 139.99 82.47 140.07 82.32 140.22C82.17 140.37 82.09 140.57 82.09 140.78C82.09 140.98 82.18 141.18 82.32 141.33C82.47 141.48 82.67 141.56 82.88 141.56Z"
      fill="#F5F5F5" fill-opacity="1.000000" fill-rule="nonzero" />
    <path id="Vector"
      d="M82.88 156.49L89.28 156.49C89.49 156.49 89.69 156.41 89.83 156.26C89.98 156.12 90.06 155.92 90.07 155.72C90.07 155.51 89.98 155.31 89.84 155.16C89.69 155.02 89.49 154.93 89.28 154.93L82.88 154.93C82.67 154.93 82.47 155.02 82.32 155.16C82.18 155.31 82.09 155.51 82.09 155.72C82.1 155.92 82.18 156.12 82.33 156.26C82.47 156.41 82.67 156.49 82.88 156.49Z"
      fill="#F5F5F5" fill-opacity="1.000000" fill-rule="nonzero" />
    <path id="Vector"
      d="M88.74 135.59C88.58 135.59 88.43 135.53 88.32 135.41C88.2 135.3 88.14 135.15 88.14 134.99L88.14 116.78C88.14 116.62 88.2 116.47 88.31 116.36C88.43 116.25 88.58 116.18 88.74 116.18C88.9 116.18 89.05 116.25 89.16 116.36C89.27 116.47 89.34 116.62 89.34 116.78L89.34 134.99C89.34 135.15 89.27 135.3 89.16 135.41C89.05 135.53 88.9 135.59 88.74 135.59Z"
      fill="#F5F5F5" fill-opacity="1.000000" fill-rule="nonzero" />
    <path id="Vector" d="M83.13 134.88L94.35 134.88L94.35 136.3L83.13 136.3L83.13 134.88Z"
      fill="#F0F0F0" fill-opacity="1.000000" fill-rule="evenodd" />
    <path id="Vector"
      d="M91.84 124.7C91.77 124.7 91.69 124.66 91.63 124.61C91.58 124.55 91.55 124.48 91.54 124.4L91.54 115.31C91.55 115.23 91.58 115.16 91.63 115.1C91.69 115.05 91.76 115.01 91.84 115.01C91.92 115.01 92 115.05 92.05 115.1C92.11 115.16 92.14 115.23 92.14 115.31L92.14 124.39C92.14 124.43 92.14 124.47 92.12 124.51C92.11 124.54 92.09 124.58 92.06 124.61C92.03 124.63 92 124.66 91.96 124.67C91.92 124.69 91.88 124.7 91.84 124.7Z"
      fill="#F0F0F0" fill-opacity="1.000000" fill-rule="nonzero" />
    <path id="Vector"
      d="M80.02 118.44C80.02 118.44 80.24 109.86 88.74 109.86C97.24 109.86 97.46 118.43 97.46 118.43L80.02 118.44Z"
      fill="#F0F0F0" fill-opacity="1.000000" fill-rule="nonzero" />
    <path id="Vector"
      d="M153.59 130.57C153.83 130.57 154.07 130.57 154.32 130.59C156.83 130.77 159.19 131.85 160.97 133.64C162.74 135.42 163.82 137.79 163.98 140.3C164.06 141.44 163.94 142.59 163.65 143.69C162.51 148.12 161.96 152.69 162.01 157.26L162.01 170.58C162.02 170.81 161.97 171.04 161.88 171.25C161.79 171.47 161.66 171.66 161.5 171.82C161.34 171.99 161.14 172.12 160.93 172.2C160.72 172.29 160.49 172.34 160.26 172.33L117.98 172.33L117.98 130.57L153.59 130.57Z"
      fill="#F0F0F0" fill-opacity="1.000000" fill-rule="nonzero" />
    <path id="Vector"
      d="M107.56 140.99C107.56 139.5 107.88 138.04 108.5 136.69C109.11 135.35 110.01 134.14 111.12 133.17C112.24 132.2 113.55 131.47 114.97 131.05C116.38 130.62 117.88 130.5 119.35 130.69C120.81 130.89 122.22 131.39 123.48 132.18C124.74 132.96 125.81 134 126.63 135.24C127.46 136.47 128.01 137.86 128.25 139.32C128.49 140.78 128.42 142.28 128.03 143.71C126.9 148.14 126.35 152.7 126.4 157.28L126.4 170.6C126.4 170.83 126.36 171.06 126.27 171.27C126.18 171.48 126.05 171.67 125.89 171.84C125.73 172 125.53 172.13 125.32 172.22C125.11 172.3 124.88 172.35 124.65 172.35L111.3 172.35C111.07 172.35 110.84 172.3 110.63 172.21C110.42 172.13 110.22 172 110.06 171.84C109.9 171.67 109.77 171.48 109.68 171.27C109.6 171.06 109.55 170.83 109.55 170.6L109.55 156.48C109.59 152.19 109.05 147.91 107.93 143.77C107.68 142.86 107.56 141.92 107.56 140.99Z"
      fill="#F5F5F5" fill-opacity="1.000000" fill-rule="nonzero" />
    <path id="Vector" d="M170.29 172.33L132.33 172.33L132.33 146.97L170.29 146.97L170.29 172.33Z"
      fill="#F0F0F0" fill-opacity="1.000000" fill-rule="evenodd" />
    <path id="Vector"
      d="M201.66 152.71L150.86 152.71L150.86 113.82C150.86 111.73 151.69 109.72 153.16 108.24C154.64 106.77 156.65 105.94 158.74 105.94L193.78 105.94C195.87 105.94 197.88 106.77 199.35 108.24C200.83 109.72 201.66 111.73 201.66 113.82L201.66 152.71Z"
      fill="#E0E0E0" fill-opacity="1.000000" fill-rule="nonzero" />
    <path id="Vector"
      d="M191.73 152.71L140.93 152.71L140.93 113.44C140.93 111.45 141.72 109.54 143.12 108.13C144.53 106.72 146.44 105.93 148.43 105.93L184.21 105.93C186.2 105.93 188.11 106.72 189.52 108.13C190.92 109.54 191.72 111.45 191.72 113.44L191.72 152.71L191.73 152.71Z"
      fill="#F5F5F5" fill-opacity="1.000000" fill-rule="nonzero" />
    <path id="Vector"
      d="M167.81 154.99L132.82 154.99C132.22 154.99 131.64 154.75 131.22 154.32C130.79 153.9 130.55 153.32 130.55 152.72L130.55 146.96C130.55 146.36 130.79 145.78 131.22 145.36C131.64 144.93 132.22 144.69 132.82 144.69L167.81 144.69C167.99 144.69 168.17 144.77 168.3 144.89C168.43 145.02 168.5 145.2 168.5 145.38L168.5 154.31C168.5 154.49 168.42 154.66 168.3 154.79C168.17 154.92 167.99 154.99 167.81 154.99Z"
      fill="#E0E0E0" fill-opacity="1.000000" fill-rule="nonzero" />
    <path id="Vector"
      d="M205.41 130.57C205.65 130.57 205.89 130.57 206.14 130.59C208.65 130.77 211.01 131.85 212.78 133.64C214.56 135.42 215.63 137.79 215.8 140.3C215.88 141.44 215.76 142.59 215.46 143.69C214.33 148.12 213.78 152.69 213.83 157.27L213.83 170.59C213.83 170.82 213.78 171.04 213.7 171.26C213.61 171.47 213.48 171.66 213.32 171.82C213.15 171.99 212.96 172.11 212.75 172.2C212.53 172.29 212.31 172.33 212.08 172.33L169.79 172.33L169.79 130.57L205.41 130.57Z"
      fill="#F0F0F0" fill-opacity="1.000000" fill-rule="nonzero" />
    <path id="Vector"
      d="M159.38 140.99C159.36 138.27 160.4 135.65 162.28 133.7C164.16 131.74 166.74 130.59 169.45 130.5C172.16 130.42 174.81 131.39 176.81 133.22C178.82 135.05 180.03 137.59 180.19 140.3C180.26 141.45 180.15 142.59 179.85 143.7C178.71 148.13 178.16 152.69 178.22 157.27L178.22 170.59C178.22 171.05 178.03 171.49 177.71 171.82C177.38 172.15 176.93 172.33 176.47 172.33L163.11 172.33C162.88 172.33 162.66 172.29 162.44 172.2C162.23 172.11 162.04 171.98 161.88 171.82C161.71 171.66 161.59 171.47 161.5 171.25C161.41 171.04 161.37 170.82 161.37 170.59L161.37 156.48C161.4 152.19 160.86 147.91 159.75 143.77C159.5 142.86 159.38 141.92 159.38 140.99Z"
      fill="#F5F5F5" fill-opacity="1.000000" fill-rule="nonzero" />
    <path id="Vector"
      d="M118.72 173.61L204.66 173.61C204.83 173.61 205 173.57 205.15 173.51C205.3 173.44 205.44 173.35 205.56 173.23C205.68 173.11 205.77 172.97 205.83 172.82C205.9 172.67 205.93 172.5 205.93 172.33L117.45 172.33C117.45 172.5 117.48 172.67 117.55 172.82C117.61 172.97 117.7 173.11 117.82 173.23C117.94 173.35 118.08 173.44 118.23 173.51C118.38 173.57 118.55 173.61 118.72 173.61Z"
      fill="#E0E0E0" fill-opacity="1.000000" fill-rule="nonzero" />
    <path id="Vector" d="M197.26 76.21L169.62 76.21L169.62 46.06L197.26 46.06L197.26 76.21Z"
      fill="#E0E0E0" fill-opacity="1.000000" fill-rule="evenodd" />
    <path id="Vector" d="M196.33 76.21L167.97 76.21L167.97 46.06L196.33 46.06L196.33 76.21Z"
      fill="#F5F5F5" fill-opacity="1.000000" fill-rule="evenodd" />
    <path id="Vector" d="M193.95 48.43L193.95 73.83L170.34 73.83L170.34 48.43L193.95 48.43Z"
      fill="#FFFFFF" fill-opacity="1.000000" fill-rule="evenodd" />
    <path id="Vector" d="M182.15 54.71L188.61 65.9L175.69 65.9L182.15 54.71Z" fill="#F5F5F5"
      fill-opacity="1.000000" fill-rule="nonzero" />
    <path id="Vector" d="M158.48 93.81L130.84 93.81L130.84 63.66L158.48 63.66L158.48 93.81Z"
      fill="#E0E0E0" fill-opacity="1.000000" fill-rule="evenodd" />
    <path id="Vector" d="M157.55 93.81L129.19 93.81L129.19 63.66L157.55 63.66L157.55 93.81Z"
      fill="#F5F5F5" fill-opacity="1.000000" fill-rule="evenodd" />
    <path id="Vector" d="M155.17 66.03L155.17 91.44L131.56 91.44L131.56 66.03L155.17 66.03Z"
      fill="#FFFFFF" fill-opacity="1.000000" fill-rule="evenodd" />
    <path id="Vector"
      d="M140.48 83.26L137.68 78.41C137.39 77.9 137.24 77.33 137.24 76.74C137.24 76.16 137.39 75.59 137.68 75.08C137.98 74.57 138.4 74.15 138.9 73.86C139.41 73.57 139.98 73.42 140.57 73.42L146.18 73.42C146.77 73.42 147.34 73.57 147.85 73.86C148.35 74.16 148.77 74.58 149.07 75.08C149.36 75.59 149.51 76.16 149.52 76.74C149.52 77.33 149.37 77.9 149.08 78.41L146.27 83.26C145.98 83.77 145.56 84.2 145.05 84.49C144.54 84.79 143.97 84.94 143.38 84.94C142.79 84.94 142.21 84.79 141.7 84.49C141.19 84.2 140.77 83.77 140.48 83.26Z"
      fill="#F5F5F5" fill-opacity="1.000000" fill-rule="nonzero" />
    <path id="Vector" d="M143.69 45.08L39.03 45.08L45.92 187.61L150.57 187.61L143.69 45.08Z"
      fill="#D7D7D7" fill-opacity="1.000000" fill-rule="nonzero" />
    <g opacity="0.200000">
      <path id="Vector" d="M143.69 45.08L39.03 45.08L45.92 187.61L150.57 187.61L143.69 45.08Z"
        fill="#000000" fill-opacity="1.000000" fill-rule="nonzero" />
    </g>
    <path id="Vector" d="M144.65 45.08L40 45.08L46.89 187.61L151.55 187.61L144.65 45.08Z"
      fill="#D7D7D7" fill-opacity="1.000000" fill-rule="nonzero" />
    <g opacity="0.200000">
      <path id="Vector"
        d="M139.13 49.87L44.78 49.87L51.37 181.16L133.41 181.06L147.05 168.97L139.13 49.87Z"
        fill="#000000" fill-opacity="1.000000" fill-rule="nonzero" />
    </g>
    <path id="Vector"
      d="M139.85 49.87C140.86 89.19 144.03 128.42 149.36 167.39C141.89 172.54 134.45 177.68 127.05 182.83L56.49 182.83C49.83 138.79 45.92 94.39 44.78 49.87L139.85 49.87Z"
      fill="#FFFFFF" fill-opacity="1.000000" fill-rule="nonzero" />
    <path id="Vector"
      d="M149.36 167.39C141.89 172.54 134.45 177.68 127.05 182.83C128.66 176.02 130.35 169.21 132.1 162.39L149.36 167.39Z"
      fill="#EBEBEB" fill-opacity="1.000000" fill-rule="nonzero" />
    <path id="Vector"
      d="M70.37 61.88C70.54 66.69 70.75 71.5 70.99 76.31L56.57 76.31C56.33 71.5 56.12 66.69 55.94 61.88L70.37 61.88ZM71.84 60.36L54.37 60.36C54.57 66.18 54.82 72 55.12 77.83L72.6 77.83C72.3 72.01 72.04 66.18 71.84 60.36L71.84 60.36Z"
      fill="#D7D7D7" fill-opacity="1.000000" fill-rule="nonzero" />
    <path id="Vector"
      d="M129.3 67.3L79.9 67.3C79.85 66.21 79.81 65.12 79.77 64.04L129.17 64.04C129.21 65.12 129.26 66.21 129.3 67.3Z"
      fill="#E0E0E0" fill-opacity="1.000000" fill-rule="nonzero" />
    <path id="Vector"
      d="M118.87 74.15L80.2 74.15C80.15 73.06 80.1 71.98 80.05 70.89L118.71 70.89C118.76 71.98 118.81 73.06 118.87 74.15Z"
      fill="#E0E0E0" fill-opacity="1.000000" fill-rule="nonzero" />
    <path id="Vector"
      d="M71.78 90.14C72.08 94.95 72.42 99.76 72.79 104.57L58.37 104.57C57.99 99.76 57.66 94.95 57.35 90.14L71.78 90.14ZM73.21 88.62L55.74 88.62C56.09 94.44 56.5 100.27 56.96 106.1L74.45 106.1C74 100.27 73.59 94.45 73.23 88.62L73.21 88.62Z"
      fill="#D7D7D7" fill-opacity="1.000000" fill-rule="nonzero" />
    <path id="Vector"
      d="M99.6 95.56L81.44 95.56C81.37 94.47 81.29 93.38 81.22 92.29L99.38 92.29C99.45 93.38 99.53 94.47 99.6 95.56Z"
      fill="#E0E0E0" fill-opacity="1.000000" fill-rule="nonzero" />
    <path id="Vector"
      d="M116.8 95.56L103.44 95.56C103.37 94.47 103.29 93.38 103.23 92.29L116.58 92.29C116.65 93.38 116.72 94.47 116.8 95.56Z"
      fill="#E0E0E0" fill-opacity="1.000000" fill-rule="nonzero" />
    <path id="Vector"
      d="M125.18 102.42L81.94 102.42C81.86 101.33 81.78 100.24 81.7 99.15L124.94 99.15C125.02 100.24 125.1 101.33 125.18 102.42Z"
      fill="#E0E0E0" fill-opacity="1.000000" fill-rule="nonzero" />
    <path id="Vector"
      d="M73.95 118.41C74.38 123.22 74.85 128.03 75.35 132.84L60.92 132.84C60.42 128.03 59.95 123.22 59.52 118.41L73.95 118.41ZM75.34 116.89L57.86 116.89C58.38 122.72 58.94 128.54 59.55 134.37L77.03 134.37C76.42 128.54 75.86 122.71 75.34 116.89Z"
      fill="#D7D7D7" fill-opacity="1.000000" fill-rule="nonzero" />
    <path id="Vector" d="M133.52 127.43L84.11 127.43L84.43 130.69L133.84 130.69L133.52 127.43Z"
      fill="#E0E0E0" fill-opacity="1.000000" fill-rule="nonzero" />
    <path id="Vector"
      d="M122.12 120.57L83.46 120.57C83.56 121.65 83.66 122.74 83.76 123.83L122.42 123.83C122.32 122.74 122.22 121.67 122.12 120.57Z"
      fill="#E0E0E0" fill-opacity="1.000000" fill-rule="nonzero" />
    <path id="Vector"
      d="M76.87 146.68C77.43 151.49 78.02 156.3 78.65 161.11L64.22 161.11C63.6 156.3 63 151.49 62.44 146.68L76.87 146.68ZM78.23 145.16L60.74 145.16C61.41 150.99 62.12 156.81 62.9 162.63L80.35 162.63C79.59 156.81 78.87 150.99 78.2 145.16L78.23 145.16Z"
      fill="#D7D7D7" fill-opacity="1.000000" fill-rule="nonzero" />
    <path id="Vector"
      d="M136.24 152.09L86.83 152.09C86.7 151 86.56 149.91 86.44 148.82L135.84 148.82C135.97 149.92 136.1 151.01 136.24 152.09Z"
      fill="#E0E0E0" fill-opacity="1.000000" fill-rule="nonzero" />
    <path id="Vector"
      d="M110.18 158.95L87.68 158.95C87.54 157.87 87.41 156.78 87.27 155.69L109.76 155.69C109.9 156.78 110.04 157.87 110.18 158.95Z"
      fill="#E0E0E0" fill-opacity="1.000000" fill-rule="nonzero" />
    <path id="Vector"
      d="M123.61 158.95L113.89 158.95C113.75 157.87 113.62 156.78 113.48 155.69L123.19 155.69C123.33 156.78 123.48 157.87 123.61 158.95Z"
      fill="#E0E0E0" fill-opacity="1.000000" fill-rule="nonzero" />
    <path id="Vector"
      d="M64.01 74.25L63.37 73.23C61.97 71.01 59.12 69.02 58.13 68.44L58.87 67.14C60.8 68.31 62.53 69.79 63.98 71.53C66.18 68.54 69.43 65.44 73.88 62.12L74.82 63.35C70.07 66.9 66.75 70.16 64.65 73.29L64.01 74.25Z"
      fill="#D7D7D7" fill-opacity="1.000000" fill-rule="nonzero" />
    <path id="Vector"
      d="M65.73 102.51L65.07 101.5C63.61 99.27 60.71 97.28 59.71 96.7L60.4 95.4C62.37 96.57 64.14 98.06 65.64 99.79C67.75 96.8 70.92 93.71 75.28 90.38C75.6 90.79 75.93 91.19 76.25 91.61C71.6 95.17 68.36 98.42 66.35 101.56C66.14 101.87 65.94 102.2 65.73 102.51Z"
      fill="#D7D7D7" fill-opacity="1.000000" fill-rule="nonzero" />
    <path id="Vector"
      d="M68.24 130.86L67.55 129.84C66.03 127.61 63.07 125.63 62.06 125.05C62.27 124.6 62.51 124.18 62.72 123.75C64.72 124.92 66.52 126.4 68.07 128.14C70.11 125.14 73.19 122.05 77.46 118.72L78.46 119.95C73.92 123.51 70.75 126.76 68.83 129.9L68.24 130.86Z"
      fill="#D7D7D7" fill-opacity="1.000000" fill-rule="nonzero" />
    <path id="Vector"
      d="M114.01 174.99C111.33 174.99 109.79 174 108.42 173.13C107.06 172.26 105.89 171.51 103.63 171.51C101.37 171.51 100.36 172.3 99.29 173.13C98.23 173.97 96.92 174.99 94.24 174.99C91.56 174.99 90.02 174 88.66 173.13C87.3 172.26 86.13 171.51 83.87 171.51C81.6 171.51 80.6 172.3 79.53 173.13C78.46 173.97 77.16 174.99 74.48 174.99C71.81 174.99 70.26 174 68.9 173.13C67.54 172.26 66.37 171.51 64.1 171.51C64.05 171.05 63.98 170.64 63.92 170.2C66.6 170.2 68.14 171.19 69.5 172.06C70.86 172.93 72.03 173.69 74.29 173.69C76.55 173.69 77.56 172.9 78.63 172.06C79.69 171.23 81.01 170.2 83.69 170.2C86.36 170.2 87.9 171.19 89.26 172.06C90.62 172.93 91.79 173.69 94.05 173.69C96.32 173.69 97.32 172.9 98.39 172.06C99.46 171.23 100.77 170.2 103.45 170.2C106.13 170.2 107.67 171.19 109.03 172.06C110.39 172.93 111.56 173.69 113.82 173.69C113.88 174.12 113.95 174.56 114.01 174.99Z"
      fill="#EBEBEB" fill-opacity="1.000000" fill-rule="nonzero" />
    <path id="Vector"
      d="M117.85 48.6C116.32 44.52 112.77 41.84 108.96 41.84L101.18 41.84C100.6 41.83 100.04 41.66 99.56 41.33C99.08 41.01 98.7 40.55 98.48 40.02C97.93 38.71 97.01 37.6 95.84 36.81C94.66 36.02 93.28 35.59 91.87 35.57C90.5 35.56 89.16 35.98 88.05 36.78C86.93 37.58 86.11 38.72 85.68 40.02C85.51 40.55 85.17 41.02 84.72 41.34C84.26 41.67 83.71 41.84 83.15 41.84L75.39 41.84C71.57 41.84 68.28 44.53 67.15 48.6L66.69 50.23L118.45 50.23L117.85 48.6Z"
      fill="#8687E7" fill-opacity="1.000000" fill-rule="nonzero" />
    <path id="Vector"
      d="M118.13 51.82L67.19 51.82C66.76 51.82 66.35 51.65 66.03 51.35C65.72 51.06 65.54 50.65 65.51 50.23C65.5 50.02 65.53 49.81 65.6 49.62C65.67 49.43 65.79 49.25 65.93 49.1C66.07 48.95 66.24 48.83 66.43 48.75C66.62 48.67 66.83 48.63 67.03 48.63L117.97 48.63C118.4 48.64 118.81 48.8 119.12 49.1C119.43 49.4 119.62 49.8 119.65 50.23C119.66 50.43 119.63 50.64 119.56 50.83C119.49 51.03 119.38 51.2 119.23 51.35C119.09 51.5 118.92 51.62 118.73 51.7C118.54 51.78 118.33 51.83 118.13 51.82Z"
      fill="#BCBDFF" fill-opacity="1.000000" fill-rule="nonzero" />
    <g opacity="0.200000">
      <path id="Vector"
        d="M118.13 51.82L67.19 51.82C66.76 51.82 66.35 51.65 66.03 51.35C65.72 51.06 65.54 50.65 65.51 50.23C65.5 50.02 65.53 49.81 65.6 49.62C65.67 49.43 65.79 49.25 65.93 49.1C66.07 48.95 66.24 48.83 66.43 48.75C66.62 48.67 66.83 48.63 67.03 48.63L117.97 48.63C118.4 48.64 118.81 48.8 119.12 49.1C119.43 49.4 119.62 49.8 119.65 50.23C119.66 50.43 119.63 50.64 119.56 50.83C119.49 51.03 119.38 51.2 119.23 51.35C119.09 51.5 118.92 51.62 118.73 51.7C118.54 51.78 118.33 51.83 118.13 51.82Z"
        fill="#000000" fill-opacity="1.000000" fill-rule="nonzero" />
    </g>
    <path id="Vector" d="M163.85 186.24L160.53 186.24L160.19 178.54L163.52 178.54L163.85 186.24Z"
      fill="#FFC3BD" fill-opacity="1.000000" fill-rule="nonzero" />
    <path id="Vector" d="M183.82 186.24L180.5 186.24L178.83 178.54L182.15 178.54L183.82 186.24Z"
      fill="#FFC3BD" fill-opacity="1.000000" fill-rule="nonzero" />
    <path id="Vector"
      d="M180.26 185.85L184 185.85C184.06 185.85 184.13 185.88 184.18 185.92C184.23 185.96 184.27 186.02 184.28 186.08L184.94 189.04C184.95 189.11 184.95 189.19 184.93 189.26C184.92 189.33 184.88 189.4 184.84 189.45C184.79 189.51 184.73 189.55 184.66 189.59C184.6 189.62 184.52 189.63 184.45 189.63C183.15 189.61 182.51 189.53 180.87 189.53C179.86 189.53 177.77 189.64 176.38 189.64C174.99 189.64 174.8 188.27 175.37 188.13C177.94 187.57 178.9 186.8 179.72 186.06C179.87 185.93 180.06 185.85 180.26 185.85Z"
      fill="#263238" fill-opacity="1.000000" fill-rule="nonzero" />
    <path id="Vector"
      d="M160.55 185.85L164.18 185.85C164.25 185.85 164.31 185.88 164.36 185.92C164.41 185.96 164.45 186.02 164.46 186.08L165.12 189.04C165.14 189.11 165.14 189.18 165.12 189.25C165.11 189.32 165.08 189.39 165.03 189.44C164.99 189.5 164.93 189.55 164.87 189.58C164.81 189.61 164.74 189.63 164.67 189.63C163.35 189.61 161.46 189.53 159.81 189.53C157.89 189.53 156.23 189.64 153.96 189.64C152.6 189.64 152.22 188.27 152.79 188.13C155.39 187.56 157.52 187.5 159.77 186.11C160 185.96 160.27 185.87 160.55 185.85Z"
      fill="#263238" fill-opacity="1.000000" fill-rule="nonzero" />
    <path id="Vector"
      d="M167.07 64.88C166.61 67.31 166.35 70.33 168.05 71.95C168.05 71.95 167.08 74.42 162.55 74.42C158.42 74.42 160.49 71.95 160.49 71.95C163.22 71.3 163.06 67.95 162.59 66.05L167.07 64.88Z"
      fill="#FFC3BD" fill-opacity="1.000000" fill-rule="nonzero" />
    <path id="Vector"
      d="M159.2 72.29C159.29 71.69 160.35 70.99 161.56 70.72C162.76 70.46 167.4 69.87 168.82 70.46C170.24 71.05 168.57 72.78 168.57 72.78L159.2 72.29Z"
      fill="#D7D7D7" fill-opacity="1.000000" fill-rule="nonzero" />
    <g opacity="0.400000">
      <path id="Vector"
        d="M159.2 72.29C159.29 71.69 160.35 70.99 161.56 70.72C162.76 70.46 167.4 69.87 168.82 70.46C170.24 71.05 168.57 72.78 168.57 72.78L159.2 72.29Z"
        fill="#FFFFFF" fill-opacity="1.000000" fill-rule="nonzero" />
    </g>
    <g opacity="0.200000">
      <path id="Vector" d="M160.19 178.54L160.37 182.51L163.69 182.51L163.52 178.54L160.19 178.54Z"
        fill="#000000" fill-opacity="1.000000" fill-rule="nonzero" />
    </g>
    <g opacity="0.200000">
      <path id="Vector" d="M182.15 178.54L178.83 178.54L179.69 182.51L183.02 182.51L182.15 178.54Z"
        fill="#000000" fill-opacity="1.000000" fill-rule="nonzero" />
    </g>
    <path id="Vector"
      d="M174.94 74.95L170.94 77.63C170.94 77.63 176.69 87.87 176.21 89.51C175.55 91.74 174.64 96.62 173.39 99.1C173.55 99.63 174.38 100.86 174.84 101.06C178.02 98.65 181.23 91.08 181.11 88.96C180.84 84.15 174.94 74.95 174.94 74.95Z"
      fill="#FFC3BD" fill-opacity="1.000000" fill-rule="nonzero" />
    <path id="Vector"
      d="M173.39 99.11L170.21 98.86L171.88 102.36C171.88 102.36 174.65 102.49 175.11 100.37L173.39 99.11Z"
      fill="#B55B52" fill-opacity="1.000000" fill-rule="nonzero" />
    <path id="Vector"
      d="M189.1 116.18L188.83 116.68L187.03 120.08L123.21 86.34L125.27 82.43L189.1 116.18Z"
      fill="#D7D7D7" fill-opacity="1.000000" fill-rule="nonzero" />
    <path id="Vector"
      d="M193.22 108.38L191.91 110.87L191.16 112.28L127.33 78.53L129.39 74.63L193.22 108.38Z"
      fill="#D7D7D7" fill-opacity="1.000000" fill-rule="nonzero" />
    <path id="Vector" d="M125.29 82.42L127.35 78.52L191.16 112.32L189.09 116.22L125.29 82.42Z"
      fill="#D7D7D7" fill-opacity="1.000000" fill-rule="evenodd" />
    <g opacity="0.200000">
      <path id="Vector" d="M125.29 82.42L127.35 78.52L191.16 112.32L189.09 116.22L125.29 82.42Z"
        fill="#000000" fill-opacity="1.000000" fill-rule="evenodd" />
    </g>
    <path id="Vector" d="M120.46 75.15L118.6 78.66L123.21 86.34L129.39 74.63L120.46 75.15Z"
      fill="#D7D7D7" fill-opacity="1.000000" fill-rule="nonzero" />
    <g opacity="0.800000">
      <path id="Vector" d="M120.46 75.15L118.6 78.66L123.21 86.34L129.39 74.63L120.46 75.15Z"
        fill="#FFFFFF" fill-opacity="1.000000" fill-rule="nonzero" />
    </g>
    <path id="Vector" d="M116.62 75.37L118.6 78.66L120.46 75.15L116.62 75.37Z" fill="#D7D7D7"
      fill-opacity="1.000000" fill-rule="nonzero" />
    <path id="Vector" d="M167.65 100.46L169.31 103.55L171.89 102.36L170.22 98.86L167.65 100.46Z"
      fill="#B55B52" fill-opacity="1.000000" fill-rule="nonzero" />
    <path id="Vector"
      d="M173.99 72.71C177.14 73.16 180.74 84.06 180.74 84.06L174.13 87.79C174.13 87.79 171.22 82.62 169.79 78.76C168.28 74.73 170.62 72.22 173.99 72.71Z"
      fill="#8687E7" fill-opacity="1.000000" fill-rule="nonzero" />
    <g opacity="0.200000">
      <path id="Vector"
        d="M172.16 76.44C170.73 75.14 171.61 80.73 172.29 84.32C172.64 85.02 172.97 85.65 173.25 86.18C174.84 83.37 174.13 78.25 172.16 76.44Z"
        fill="#000000" fill-opacity="1.000000" fill-rule="nonzero" />
    </g>
    <path id="Vector"
      d="M155.36 72.88C155.36 72.88 151.43 82.92 155.16 101.63L172.97 101.63C173.09 98.9 171.38 85.57 174.01 72.71C172.04 72.33 170.05 72.08 168.05 71.95C165.54 71.81 163.01 71.81 160.49 71.95C158.76 72.13 157.04 72.44 155.36 72.88Z"
      fill="#8687E7" fill-opacity="1.000000" fill-rule="nonzero" />
    <path id="Vector"
      d="M158.1 77.55L153.61 75.77C153.61 75.77 148.44 86.32 146.8 86.85C144.59 87.58 140.05 89.57 137.3 89.96C136.95 90.42 136.42 91.78 136.5 92.28C140.3 93.52 148.36 91.88 150.03 90.58C153.87 87.62 158.1 77.55 158.1 77.55Z"
      fill="#FFC3BD" fill-opacity="1.000000" fill-rule="nonzero" />
    <g opacity="0.200000">
      <path id="Vector"
        d="M158.6 76.35C157.86 74.64 156.44 73.93 154.97 74.18C154.4 76.27 153.43 80.87 153.61 87.8L154.66 88.31C154.66 88.31 159.87 79.27 158.6 76.35Z"
        fill="#000000" fill-opacity="1.000000" fill-rule="nonzero" />
    </g>
    <path id="Vector"
      d="M159.31 75.15C160.42 78.13 154.77 86.9 154.77 86.9L148.11 83.26C149.11 80.54 150.4 77.93 151.96 75.48C154.3 71.99 158.08 71.89 159.31 75.15Z"
      fill="#8687E7" fill-opacity="1.000000" fill-rule="nonzero" />
    <path id="Vector"
      d="M137.46 89.96L133.5 90.79L135.51 94.46C136.62 93.91 137.62 93.17 138.48 92.29L137.46 89.96Z"
      fill="#FFC3BD" fill-opacity="1.000000" fill-rule="nonzero" />
    <path id="Vector" d="M131.63 91.63L133.21 93.81L135.51 94.48L133.5 90.81L131.63 91.63Z"
      fill="#FFC3BD" fill-opacity="1.000000" fill-rule="nonzero" />
    <path id="Vector"
      d="M159.52 61.38C159.52 61.65 159.35 61.83 159.18 61.83C159 61.83 158.87 61.6 158.89 61.33C158.91 61.06 159.06 60.88 159.24 60.88C159.41 60.88 159.54 61.11 159.52 61.38Z"
      fill="#263238" fill-opacity="1.000000" fill-rule="nonzero" />
    <path id="Vector"
      d="M159.76 61.4C159.39 62.2 158.92 62.95 158.35 63.62C158.52 63.76 158.73 63.86 158.94 63.92C159.16 63.97 159.39 63.98 159.61 63.93L159.76 61.4Z"
      fill="#ED847E" fill-opacity="1.000000" fill-rule="nonzero" />
    <path id="Vector"
      d="M159.18 60.45C159.16 60.45 159.13 60.44 159.11 60.43C159.1 60.42 159.08 60.4 159.07 60.38C159.06 60.37 159.05 60.35 159.04 60.33C159.04 60.31 159.04 60.29 159.04 60.27C159.05 60.25 159.06 60.23 159.07 60.21C159.2 60 159.38 59.82 159.59 59.69C159.81 59.56 160.05 59.48 160.3 59.46C160.34 59.47 160.38 59.48 160.41 59.51C160.44 59.54 160.46 59.58 160.46 59.62C160.46 59.67 160.44 59.71 160.41 59.74C160.38 59.77 160.34 59.78 160.3 59.78C160.1 59.8 159.92 59.86 159.75 59.97C159.59 60.07 159.45 60.21 159.35 60.38C159.33 60.41 159.31 60.43 159.28 60.44C159.25 60.46 159.21 60.46 159.18 60.45Z"
      fill="#263238" fill-opacity="1.000000" fill-rule="nonzero" />
    <path id="Vector"
      d="M168.55 61.15C168.16 64.43 168.09 66.36 166.34 67.96C163.69 70.36 159.72 68.62 159.12 65.28C158.58 62.29 159.31 57.44 162.61 56.31C163.33 56.06 164.11 56 164.87 56.13C165.62 56.26 166.33 56.59 166.93 57.07C167.52 57.56 167.98 58.19 168.27 58.9C168.55 59.61 168.65 60.39 168.55 61.15Z"
      fill="#FFC3BD" fill-opacity="1.000000" fill-rule="nonzero" />
    <path id="Vector"
      d="M161.94 61.79C160.79 62.02 158.96 59.46 160.46 57.3C159.7 56.92 157.22 58.41 156.29 57.02C155.36 55.63 157.95 54.89 157.45 53.72C159.2 54.08 156.32 56.26 157.98 56.05C159.65 55.84 161.57 52.76 163.43 54.02C166.72 56.23 171.21 52.55 169.38 57.16C171.62 56.71 173.16 59.36 171.02 61.2C166.75 64.85 169.38 65.33 166.68 65.52C165.32 65.62 162.18 64.01 161.94 61.79Z"
      fill="#263238" fill-opacity="1.000000" fill-rule="nonzero" />
    <path id="Vector"
      d="M163.64 62.65C163.49 62.97 163.27 63.27 162.99 63.51C162.72 63.75 162.4 63.93 162.06 64.05C161.15 64.36 160.63 63.55 160.84 62.66C161.03 61.85 161.75 60.71 162.69 60.79C162.9 60.81 163.1 60.89 163.27 61C163.44 61.12 163.58 61.28 163.67 61.46C163.77 61.65 163.81 61.85 163.81 62.06C163.8 62.26 163.75 62.47 163.64 62.65Z"
      fill="#FFC3BD" fill-opacity="1.000000" fill-rule="nonzero" />
    <path id="Vector"
      d="M161.47 101.63C161.47 101.63 165.25 127.05 167.32 136.59C169.59 147.03 178.14 181.75 178.14 181.75L184.23 181.75C184.23 181.75 178.59 147.86 177.3 137.53C175.89 126.33 172.95 101.64 172.95 101.64L161.47 101.63Z"
      fill="#D7D7D7" fill-opacity="1.000000" fill-rule="nonzero" />
    <g opacity="0.200000">
      <path id="Vector"
        d="M161.47 101.63C161.47 101.63 165.25 127.05 167.32 136.59C169.59 147.03 178.14 181.75 178.14 181.75L184.23 181.75C184.23 181.75 178.59 147.86 177.3 137.53C175.89 126.33 172.95 101.64 172.95 101.64L161.47 101.63Z"
        fill="#FFFFFF" fill-opacity="1.000000" fill-rule="nonzero" />
    </g>
    <g opacity="0.200000">
      <path id="Vector"
        d="M165.96 110.52C165.67 110.12 165.42 109.98 165.18 110.06L165.13 110.06C165.08 110.09 165.03 110.12 164.98 110.15C164.94 110.19 164.89 110.24 164.85 110.29L164.78 110.38L164.68 110.53C164.61 110.66 164.54 110.8 164.48 110.94C164.44 111.03 164.41 111.12 164.38 111.21C164.34 111.3 164.29 111.44 164.26 111.57C164.22 111.69 164.15 111.91 164.1 112.1C164.1 112.15 164.08 112.19 164.07 112.24C164.05 112.29 164.02 112.45 163.99 112.56C163.97 112.66 163.95 112.74 163.93 112.83C163.89 113.01 163.86 113.19 163.82 113.38C163.78 113.57 163.74 113.8 163.71 114.01C163.71 114.08 163.69 114.15 163.67 114.23C163.63 114.5 163.59 114.78 163.54 115.07C164.55 121.4 165.75 128.65 166.72 133.71C166.77 133.55 166.82 133.38 166.86 133.19C167.06 132.35 167.21 131.49 167.31 130.63C168.17 124.11 167.78 113.12 165.96 110.52Z"
        fill="#000000" fill-opacity="1.000000" fill-rule="nonzero" />
    </g>
    <path id="Vector"
      d="M155.16 101.63C155.16 101.63 154.7 126.5 155.06 136.64C155.44 147.2 159.13 181.74 159.13 181.74L164.76 181.74C164.76 181.74 164.97 147.81 165.21 137.45C165.49 126.15 166.85 101.63 166.85 101.63L155.16 101.63Z"
      fill="#D7D7D7" fill-opacity="1.000000" fill-rule="nonzero" />
    <g opacity="0.200000">
      <path id="Vector"
        d="M155.16 101.63C155.16 101.63 154.7 126.5 155.06 136.64C155.44 147.2 159.13 181.74 159.13 181.74L164.76 181.74C164.76 181.74 164.97 147.81 165.21 137.45C165.49 126.15 166.85 101.63 166.85 101.63L155.16 101.63Z"
        fill="#FFFFFF" fill-opacity="1.000000" fill-rule="nonzero" />
    </g>
    <path id="Vector"
      d="M165.13 180.02C165.16 180.02 165.13 181.85 165.13 181.85L158.64 181.85L158.36 179.79L165.13 180.02Z"
      fill="#263238" fill-opacity="1.000000" fill-rule="nonzero" />
    <path id="Vector"
      d="M184.23 180.15C184.26 180.15 184.53 181.85 184.53 181.85L177.84 181.85L177.25 179.9L184.23 180.15Z"
      fill="#263238" fill-opacity="1.000000" fill-rule="nonzero" />
    <path id="Vector"
      d="M179.16 186.43C178.94 186.45 178.71 186.39 178.52 186.27C178.46 186.22 178.41 186.15 178.39 186.08C178.36 186.01 178.35 185.93 178.36 185.85C178.36 185.8 178.37 185.76 178.39 185.72C178.42 185.68 178.45 185.65 178.49 185.63C178.86 185.44 179.93 186.08 180.06 186.17C180.07 186.18 180.08 186.19 180.08 186.21C180.09 186.22 180.09 186.24 180.09 186.25C180.09 186.27 180.08 186.28 180.07 186.29C180.06 186.31 180.04 186.31 180.03 186.32C179.75 186.39 179.45 186.43 179.16 186.43ZM178.67 185.75C178.63 185.74 178.6 185.74 178.56 185.75C178.55 185.76 178.53 185.77 178.53 185.79C178.52 185.8 178.51 185.82 178.51 185.84C178.51 185.89 178.51 185.95 178.53 186C178.55 186.05 178.58 186.09 178.62 186.13C178.99 186.3 179.42 186.32 179.8 186.19C179.46 185.97 179.07 185.82 178.67 185.75Z"
      fill="#D7D7D7" fill-opacity="1.000000" fill-rule="nonzero" />
    <path id="Vector"
      d="M180.01 186.32C180 186.33 179.99 186.33 179.97 186.32C179.63 186.14 178.97 185.41 179.04 185.04C179.05 184.98 179.08 184.93 179.12 184.89C179.17 184.85 179.23 184.83 179.28 184.83C179.34 184.82 179.41 184.83 179.46 184.85C179.52 184.86 179.58 184.89 179.62 184.93C180.01 185.25 180.07 186.21 180.07 186.25C180.07 186.26 180.07 186.28 180.06 186.29C180.06 186.3 180.05 186.31 180.04 186.32C180.03 186.32 180.02 186.32 180.01 186.32ZM179.34 184.96L179.33 184.96C179.22 184.96 179.21 185.02 179.21 185.04C179.17 185.26 179.59 185.81 179.93 186.07C179.91 185.69 179.77 185.33 179.54 185.03C179.51 185 179.48 184.98 179.44 184.97C179.4 184.96 179.36 184.96 179.33 184.97L179.34 184.96Z"
      fill="#D7D7D7" fill-opacity="1.000000" fill-rule="nonzero" />
    <path id="Vector"
      d="M159.16 186.44C158.88 186.46 158.59 186.39 158.36 186.23C158.3 186.18 158.26 186.12 158.24 186.06C158.21 185.99 158.2 185.92 158.21 185.85C158.21 185.81 158.22 185.76 158.24 185.73C158.27 185.69 158.3 185.66 158.34 185.64C158.74 185.41 160.08 186.09 160.23 186.17C160.25 186.18 160.26 186.19 160.27 186.21C160.27 186.22 160.27 186.24 160.27 186.25C160.27 186.27 160.26 186.28 160.25 186.3C160.24 186.31 160.22 186.32 160.21 186.32C159.86 186.39 159.51 186.43 159.16 186.44ZM158.56 185.75C158.51 185.75 158.46 185.76 158.41 185.78C158.4 185.79 158.39 185.8 158.38 185.81C158.37 185.83 158.36 185.85 158.36 185.86C158.36 185.91 158.36 185.96 158.38 186C158.4 186.04 158.42 186.08 158.46 186.11C158.66 186.29 159.21 186.33 159.95 186.2C159.51 185.98 159.04 185.82 158.56 185.75Z"
      fill="#D7D7D7" fill-opacity="1.000000" fill-rule="nonzero" />
    <path id="Vector"
      d="M160.19 186.32L160.16 186.32C159.76 186.14 158.96 185.41 159.03 185.05C159.03 184.96 159.1 184.85 159.32 184.83C159.4 184.82 159.48 184.82 159.56 184.84C159.64 184.87 159.71 184.91 159.77 184.96C160.19 185.31 160.28 186.2 160.28 186.24C160.29 186.26 160.28 186.27 160.28 186.28C160.27 186.3 160.26 186.31 160.25 186.31C160.24 186.32 160.21 186.33 160.19 186.32ZM159.38 184.96L159.35 184.96C159.21 184.96 159.2 185.03 159.2 185.05C159.16 185.27 159.7 185.84 160.1 186.09C160.06 185.7 159.9 185.35 159.65 185.06C159.57 185 159.48 184.97 159.38 184.97L159.38 184.96Z"
      fill="#D7D7D7" fill-opacity="1.000000" fill-rule="nonzero" />
  </g>
</svg>