<svg width="24.000000" height="24.000000" viewBox="0 0 24 24" fill="none" xmlns="http://www.w3.org/2000/svg" xmlns:xlink="http://www.w3.org/1999/xlink">
	<path id="Vector" d="M21 7.75L3 7.75C2.58 7.75 2.25 7.4 2.25 7C2.25 6.59 2.58 6.25 3 6.25L21 6.25C21.41 6.25 21.75 6.59 21.75 7C21.75 7.4 21.41 7.75 21 7.75Z" fill="#FFFFFF" fill-opacity="0.870000" fill-rule="nonzero"/>
	<path id="Vector" d="M18 12.75L6 12.75C5.58 12.75 5.25 12.4 5.25 12C5.25 11.59 5.58 11.25 6 11.25L18 11.25C18.41 11.25 18.75 11.59 18.75 12C18.75 12.4 18.41 12.75 18 12.75Z" fill="#FFFFFF" fill-opacity="0.870000" fill-rule="nonzero"/>
	<path id="Vector" d="M14 17.75L10 17.75C9.58 17.75 9.25 17.4 9.25 17C9.25 16.59 9.58 16.25 10 16.25L14 16.25C14.41 16.25 14.75 16.59 14.75 17C14.75 17.4 14.41 17.75 14 17.75Z" fill="#FFFFFF" fill-opacity="0.870000" fill-rule="nonzero"/>
	<g opacity="0.000000"/>
</svg>
